<svg xmlns="http://www.w3.org/2000/svg" width="128" height="112" viewBox="0 0 128 112" role="img" aria-labelledby="title desc">
  <title id="title">Chrome 주소창 설치 아이콘</title>
  <desc id="desc">모니터와 아래쪽 화살표 모양의 Chrome 앱 설치 아이콘</desc>
  <defs>
    <linearGradient id="chromeFace" x1="26" y1="18" x2="92" y2="92" gradientUnits="userSpaceOnUse">
      <stop offset="0" stop-color="#fffef9"/>
      <stop offset=".56" stop-color="#f4f1e9"/>
      <stop offset="1" stop-color="#ddd8ce"/>
    </linearGradient>
    <linearGradient id="chromeEdge" x1="24" y1="20" x2="98" y2="94" gradientUnits="userSpaceOnUse">
      <stop offset="0" stop-color="#ffffff"/>
      <stop offset=".45" stop-color="#d7d2c8"/>
      <stop offset="1" stop-color="#aaa49a"/>
    </linearGradient>
    <filter id="chromeShadow" x="-18%" y="-22%" width="136%" height="148%">
      <feDropShadow dx="0" dy="5" stdDeviation="4" flood-color="#101318" flood-opacity=".26"/>
      <feDropShadow dx="0" dy="1" stdDeviation="1" flood-color="#ffffff" flood-opacity=".55"/>
    </filter>
  </defs>
  <g filter="url(#chromeShadow)">
    <path d="M29 22.5h58a8.5 8.5 0 0 1 8.5 8.5v35.5A8.5 8.5 0 0 1 87 75H69.5v7.5h12a5 5 0 0 1 0 10h-47a5 5 0 0 1 0-10h12V75H29a8.5 8.5 0 0 1-8.5-8.5V31a8.5 8.5 0 0 1 8.5-8.5Zm3.5 12v28h51v-28h-51Z" fill="url(#chromeFace)" stroke="url(#chromeEdge)" stroke-width="3"/>
    <path d="M92 44.5v30.8h-9.6l16.7 16.2 16.4-16.2H106V44.5H92Z" fill="url(#chromeFace)" stroke="url(#chromeEdge)" stroke-width="3" stroke-linejoin="round"/>
    <path d="M33.5 35.5h49M51 82.5h14" fill="none" stroke="#ffffff" stroke-width="2" stroke-linecap="round" opacity=".6"/>
  </g>
</svg>
